<?xml version="1.0" encoding="UTF-8"?>
<svg id="Layer_1" data-name="Layer 1" xmlns="http://www.w3.org/2000/svg" viewBox="0 0 595.28 415.23">
  <defs>
    <style>
      .cls-1, .cls-2 {
        fill: #fff;
      }

      .cls-3 {
        fill: blue;
      }

      .cls-2 {
        font-family: AddressSansPro-CdBoldIt, 'Address Sans Pro';
        font-size: 167.84px;
        font-style: italic;
        font-weight: 700;
      }

      .cls-4 {
        letter-spacing: -.02em;
      }

      .cls-5 {
        fill: none;
        stroke: #fff;
        stroke-miterlimit: 10;
        stroke-width: 4px;
      }

      .cls-6 {
        letter-spacing: 0em;
      }
    </style>
  </defs>
  <path class="cls-1" d="m378.03,32.78h153.16c1.49,0,2.7,1.21,2.7,2.7v171.55c0,1.49-1.21,2.7-2.7,2.7h-153.16c-48.83,0-88.47-39.64-88.47-88.47h0c0-48.83,39.64-88.47,88.47-88.47Z" transform="translate(823.43 242.5) rotate(-180)"/>
  <path class="cls-1" d="m133.7,32.78h155.85v176.94h-155.85c-48.83,0-88.47-39.64-88.47-88.47h0c0-48.83,39.64-88.47,88.47-88.47Z"/>
  <path class="cls-3" d="m378.03,32.78h155.85v176.94h-155.85c-48.83,0-88.47-39.64-88.47-88.47h0c0-48.83,39.64-88.47,88.47-88.47Z" transform="translate(823.43 242.5) rotate(-180)"/>
  <text class="cls-2" transform="translate(88.7 381.45)"><tspan x="0" y="0">S</tspan><tspan class="cls-4" x="80.9" y="0">P</tspan><tspan class="cls-6" x="156.93" y="0">A</tspan><tspan x="233.46" y="0">RE</tspan></text>
  <path class="cls-5" d="m378.03,32.78h153.16c1.49,0,2.7,1.21,2.7,2.7v171.55c0,1.49-1.21,2.7-2.7,2.7h-153.16c-48.83,0-88.47-39.64-88.47-88.47h0c0-48.83,39.64-88.47,88.47-88.47Z" transform="translate(823.43 242.5) rotate(-180)"/>
</svg>